<svg width="645" height="639" viewBox="0 0 645 639" fill="none" xmlns="http://www.w3.org/2000/svg">
<g id="No Upcoming Trips">
<g id="Group 3">
<mask id="mask0_597_1332" style="mask-type:luminance" maskUnits="userSpaceOnUse" x="60" y="139" width="538" height="307">
<path id="Clip 2" fill-rule="evenodd" clip-rule="evenodd" d="M193.379 193.418H124.669C115.741 193.418 108.438 200.744 108.438 209.7C108.438 218.656 115.741 225.982 124.669 225.982H159.636H169.884C178.812 225.982 186.114 233.31 186.114 242.266C186.114 246.742 184.285 250.821 181.342 253.762C178.411 256.716 174.343 258.551 169.884 258.551H148.022H135.951H77.0596C68.1315 258.551 60.8291 265.879 60.8291 274.833C60.8291 283.786 68.1315 291.115 77.0596 291.115H119.22C106.492 321.123 99.4439 354.14 99.4439 388.816C99.4439 401.396 100.374 413.76 102.159 425.842C102.904 430.889 103.804 435.894 104.855 440.845C135.477 436.146 167.959 432.365 201.87 429.608L204.421 431.943L206.823 429.219C247.564 426.039 290.325 424.344 334.43 424.344C428.134 424.344 515.82 431.986 590.793 445.273C593.684 432.705 595.632 419.774 596.553 406.553C596.973 400.691 597.18 394.775 597.18 388.816C597.18 250.919 485.763 139.14 348.313 139.14C289.732 139.14 235.891 159.446 193.379 193.418Z" fill="white"/>
</mask>
<g mask="url(#mask0_597_1332)">
<path id="Fill 1" fill-rule="evenodd" clip-rule="evenodd" d="M49.0254 457.141H609.108V127.277H49.0254V457.141Z" fill="#F1F2F7"/>
</g>
</g>
<g id="Group 6">
<mask id="mask1_597_1332" style="mask-type:luminance" maskUnits="userSpaceOnUse" x="1" y="257" width="44" height="35">
<path id="Clip 5" fill-rule="evenodd" clip-rule="evenodd" d="M17.9394 257.796C8.89737 257.796 1.5 265.273 1.5 274.408C1.5 283.542 8.89737 291.019 17.9394 291.019H27.7764C36.8208 291.019 44.2182 283.542 44.2182 274.408C44.2182 265.273 36.8208 257.796 27.7764 257.796H17.9394Z" fill="white"/>
</mask>
<g mask="url(#mask1_597_1332)">
<path id="Fill 4" fill-rule="evenodd" clip-rule="evenodd" d="M-10.3824 302.886H56.0681V245.931H-10.3824V302.886Z" fill="#F1F2F7"/>
</g>
</g>
<g id="Group 9">
<mask id="mask2_597_1332" style="mask-type:luminance" maskUnits="userSpaceOnUse" x="104" y="424" width="539" height="214">
<path id="Clip 8" fill-rule="evenodd" clip-rule="evenodd" d="M206.438 429.55L204.034 432.258L201.482 429.937C167.581 432.678 135.108 436.43 104.491 441.102C128.344 553.308 228.257 637.5 347.89 637.5C403.905 637.5 455.592 619.032 497.187 587.88H541.465C550.388 587.88 557.69 580.597 557.69 571.7C557.69 567.258 555.861 563.2 552.92 560.278C549.987 557.343 545.919 555.52 541.465 555.52H522.208C513.282 555.52 505.98 548.239 505.98 539.34C505.98 534.895 507.81 530.84 510.75 527.916C513.684 524.98 517.751 523.16 522.208 523.16H625.854C634.78 523.16 642.08 515.88 642.08 506.978C642.08 502.533 640.25 498.477 637.31 495.556C634.367 492.621 630.318 490.798 625.854 490.798H575.032C581.522 476.377 586.672 461.231 590.315 445.505C515.359 432.303 427.694 424.707 334.011 424.707C289.919 424.707 247.165 426.389 206.438 429.55Z" fill="white"/>
</mask>
<g mask="url(#mask2_597_1332)">
<path id="Fill 7" fill-rule="evenodd" clip-rule="evenodd" d="M92.609 649.362H653.928V412.838H92.609V649.362Z" fill="#E8EBF2"/>
</g>
</g>
<g id="Group 12">
<mask id="mask3_597_1332" style="mask-type:luminance" maskUnits="userSpaceOnUse" x="205" y="395" width="390" height="51">
<path id="Clip 11" fill-rule="evenodd" clip-rule="evenodd" d="M546.91 427.013L521.853 404.048L495.04 423.949L483.801 408.464L439.431 423.949L337.218 408.464L277.804 424.867C295.971 424.26 314.43 423.949 333.134 423.949C426.713 423.949 514.285 431.735 589.16 445.276C592.042 432.466 593.99 419.29 594.908 405.818L586.427 395.44L546.91 427.013ZM205.687 428.919C229.097 427.053 253.173 425.691 277.793 424.87L233.903 396.231L205.687 428.919Z" fill="white"/>
</mask>
<g mask="url(#mask3_597_1332)">
<path id="Fill 10" fill-rule="evenodd" clip-rule="evenodd" d="M193.804 457.138H606.747V383.572H193.804V457.138Z" fill="#E0E2EE"/>
</g>
</g>
<g id="Group 15">
<mask id="mask4_597_1332" style="mask-type:luminance" maskUnits="userSpaceOnUse" x="200" y="428" width="6" height="4">
<path id="Clip 14" fill-rule="evenodd" clip-rule="evenodd" d="M200.836 429.006L203.281 431.04L205.583 428.665C203.997 428.769 202.41 428.883 200.836 429.006Z" fill="white"/>
</mask>
<g mask="url(#mask4_597_1332)">
<path id="Fill 13" fill-rule="evenodd" clip-rule="evenodd" d="M188.954 442.9H217.433V416.796H188.954V442.9Z" fill="#F1F2F7"/>
</g>
</g>
<g id="Group 18">
<mask id="mask5_597_1332" style="mask-type:luminance" maskUnits="userSpaceOnUse" x="101" y="385" width="100" height="56">
<path id="Clip 17" fill-rule="evenodd" clip-rule="evenodd" d="M101.206 425.501C101.951 430.558 102.851 435.57 103.897 440.527C134.51 435.821 166.983 432.036 200.882 429.274L153.676 385.945L101.206 425.501Z" fill="white"/>
</mask>
<g mask="url(#mask5_597_1332)">
<path id="Fill 16" fill-rule="evenodd" clip-rule="evenodd" d="M89.3557 452.395H212.764V374.082H89.3557V452.395Z" fill="#E0E2EE"/>
</g>
</g>
<g id="Group 21">
<mask id="mask6_597_1332" style="mask-type:luminance" maskUnits="userSpaceOnUse" x="259" y="518" width="186" height="17">
<path id="Clip 20" fill-rule="evenodd" clip-rule="evenodd" d="M259.562 526.479C259.562 531.064 301.001 534.785 352.12 534.785C403.237 534.785 444.676 531.064 444.676 526.479C444.676 521.894 403.237 518.173 352.12 518.173C301.001 518.173 259.562 521.894 259.562 526.479Z" fill="white"/>
</mask>
<g mask="url(#mask6_597_1332)">
<path id="Fill 19" fill-rule="evenodd" clip-rule="evenodd" d="M247.685 546.648H456.53V506.305H247.685V546.648Z" fill="#D8DBEA"/>
</g>
</g>
<g id="Group 24">
<mask id="mask7_597_1332" style="mask-type:luminance" maskUnits="userSpaceOnUse" x="573" y="554" width="34" height="34">
<path id="Clip 23" fill-rule="evenodd" clip-rule="evenodd" d="M573.4 571.049C573.4 580.185 580.876 587.66 590.013 587.66C599.15 587.66 606.626 580.185 606.626 571.049C606.626 561.914 599.15 554.437 590.013 554.437C580.876 554.437 573.4 561.914 573.4 571.049Z" fill="white"/>
</mask>
<g mask="url(#mask7_597_1332)">
<path id="Fill 22" fill-rule="evenodd" clip-rule="evenodd" d="M561.53 599.527H618.488V542.572H561.53V599.527Z" fill="#E1E3EF"/>
</g>
</g>
<g id="Group 47">
<path id="Fill 25" fill-rule="evenodd" clip-rule="evenodd" d="M349.761 324.8C342.034 324.8 335.769 318.535 335.769 310.808C335.769 303.083 342.034 296.82 349.761 296.82C357.489 296.82 363.754 303.083 363.754 310.808C363.754 318.535 357.489 324.8 349.761 324.8ZM349.708 291.024C338.782 291.024 329.922 299.881 329.922 310.807C329.922 321.737 338.782 330.594 349.708 330.594C360.634 330.594 369.496 321.737 369.496 310.807C369.496 299.881 360.634 291.024 349.708 291.024Z" fill="#D8DBEA"/>
<path id="Fill 27" fill-rule="evenodd" clip-rule="evenodd" d="M403.236 496.295H295.992C285.312 496.295 276.65 487.638 276.65 476.956V378.339C276.65 339.835 308.157 308.331 346.661 308.331H352.565C391.073 308.331 422.575 339.835 422.575 378.339V476.956C422.575 487.638 413.918 496.295 403.236 496.295Z" fill="#D8DBEA"/>
<path id="Fill 29" fill-rule="evenodd" clip-rule="evenodd" d="M431.349 472.801H430.3C426.042 472.801 422.561 469.318 422.561 465.063V410.054C422.561 405.796 426.042 402.315 430.3 402.315H440.792C445.047 402.315 448.529 405.796 448.529 410.054V455.62C448.529 465.07 440.797 472.801 431.349 472.801Z" fill="url(#paint0_linear_597_1332)"/>
<path id="Fill 31" fill-rule="evenodd" clip-rule="evenodd" d="M268.944 472.801H267.895C258.442 472.801 250.71 465.069 250.71 455.619V410.053C250.71 405.796 254.192 402.314 258.449 402.314H268.944C273.199 402.314 276.68 405.796 276.68 410.053V465.062C276.68 469.317 273.199 472.801 268.944 472.801Z" fill="url(#paint1_linear_597_1332)"/>
<path id="Fill 33" fill-rule="evenodd" clip-rule="evenodd" d="M395.335 469.679L348.343 484.549L301.348 469.679V437.556H395.335V469.679Z" fill="#BEC0D6"/>
<path id="Fill 35" fill-rule="evenodd" clip-rule="evenodd" d="M320.355 478.227L318.15 480.424C316.318 482.249 313.351 482.249 311.517 480.424L309.314 478.227V457.682H320.355V478.227Z" fill="url(#paint2_linear_597_1332)"/>
<path id="Fill 37" fill-rule="evenodd" clip-rule="evenodd" d="M317.097 474.611C317.097 475.845 316.098 476.842 314.866 476.842C313.632 476.842 312.633 475.845 312.633 474.611C312.633 473.377 313.632 472.381 314.866 472.381C316.098 472.381 317.097 473.377 317.097 474.611Z" fill="#F7FFF6"/>
<path id="Fill 39" fill-rule="evenodd" clip-rule="evenodd" d="M383.496 478.227L381.292 480.424C379.46 482.249 376.493 482.249 374.659 480.424L372.456 478.227V457.682H383.496V478.227Z" fill="url(#paint3_linear_597_1332)"/>
<path id="Fill 41" fill-rule="evenodd" clip-rule="evenodd" d="M380.247 474.611C380.247 475.845 379.248 476.841 378.016 476.841C376.782 476.841 375.783 475.845 375.783 474.611C375.783 473.377 376.782 472.38 378.016 472.38C379.248 472.38 380.247 473.377 380.247 474.611Z" fill="#F7FFF6"/>
<path id="Fill 43" fill-rule="evenodd" clip-rule="evenodd" d="M415.604 381.959V392.42V414.137L291.726 354.809C299.961 333.759 320.539 318.773 344.407 318.773H354.894C386.007 318.773 415.604 350.822 415.604 381.959Z" fill="white"/>
<path id="Fill 45" fill-rule="evenodd" clip-rule="evenodd" d="M291.72 387.427V376.966V355.25L415.598 414.58C407.365 435.627 386.787 450.613 362.917 450.613H352.432C321.316 450.613 291.72 418.564 291.72 387.427Z" fill="url(#paint4_linear_597_1332)"/>
</g>
<g id="Bee">
<path id="Stroke 3" d="M389.457 101.168C307.248 108.127 277.033 177.709 301.785 218.269C319.252 246.886 348.848 285.561 404.018 276.284C459.186 267.005 463.834 215.951 434.78 209.006C405.725 202.064 302.218 234.452 313.916 309.275C322.36 363.262 395.552 378.824 395.552 378.824" stroke="#D7DAE9" stroke-width="2" stroke-dasharray="7"/>
<path id="Fill 5" fill-rule="evenodd" clip-rule="evenodd" d="M437.021 58.455C437.021 58.455 448.801 27.6841 450.043 15.7138C450.696 9.45904 440.331 -7.95573 428.199 8.15293C416.067 24.2616 421.602 44.0128 437.021 58.455Z" fill="#D8DBEA"/>
<path id="Fill 7_2" fill-rule="evenodd" clip-rule="evenodd" d="M395.184 24.9455C381.384 20.2789 375.137 23.9174 372.475 31.1799C369.811 38.4448 373.529 52.273 394.344 55.4253C415.16 58.5775 435.797 58.4566 435.797 58.4566C435.797 58.4566 408.984 29.6122 395.184 24.9455Z" fill="#D8DBEA"/>
<path id="Fill 9" fill-rule="evenodd" clip-rule="evenodd" d="M434.623 64.5559C434.936 63.2697 435.35 62.0369 435.812 60.832C433.264 61.2344 430.672 61.7996 428.063 62.5649C425.232 63.3929 422.59 64.4792 420.106 65.7236C419.028 67.7612 418.154 69.9383 417.587 72.2759C414.09 86.6668 422.346 101.172 436.217 105.921C437.719 105.624 439.228 105.279 440.74 104.837C444.964 103.6 448.861 101.962 452.384 100.064C438.837 94.1216 431.041 79.2911 434.623 64.5559Z" fill="#D8DBEA"/>
<path id="Fill 11" fill-rule="evenodd" clip-rule="evenodd" d="M414.832 72.0548C415.163 70.6331 415.613 69.2736 416.111 67.9453C404.111 75.6329 397.391 87.564 398.499 94.5216C390.83 97.8173 385.946 100.594 385.946 100.594C385.946 100.594 391.732 100.153 400.163 98.533C404.679 105.132 417.196 109.55 431.038 107.965C418.499 101.482 411.422 86.7263 414.832 72.0548Z" fill="#D8DBEA"/>
<path id="Fill 13_2" fill-rule="evenodd" clip-rule="evenodd" d="M454.597 77.2708C451.418 76.5079 449.447 73.3148 450.212 70.1167C450.975 66.9407 454.188 64.9724 457.365 65.7353C460.558 66.503 462.51 69.7084 461.749 72.8869C460.982 76.0825 457.793 78.036 454.597 77.2708ZM468.507 73.0058C465.949 64.1448 454.186 59.5688 440.31 61.1358C439.73 62.5088 439.236 63.9573 438.884 65.4574C435.794 78.6099 442.932 91.8399 455.036 96.4289C465.137 90.0035 470.809 80.9054 468.507 73.0058Z" fill="#D8DBEA"/>
</g>
</g>
<defs>
<linearGradient id="paint0_linear_597_1332" x1="435.545" y1="367.072" x2="389.815" y2="383.919" gradientUnits="userSpaceOnUse">
<stop stop-color="#FF8960"/>
<stop offset="1" stop-color="#FF62A5"/>
</linearGradient>
<linearGradient id="paint1_linear_597_1332" x1="263.695" y1="367.071" x2="217.963" y2="383.921" gradientUnits="userSpaceOnUse">
<stop stop-color="#FF8960"/>
<stop offset="1" stop-color="#FF62A5"/>
</linearGradient>
<linearGradient id="paint2_linear_597_1332" x1="314.835" y1="445.627" x2="296.581" y2="453.985" gradientUnits="userSpaceOnUse">
<stop stop-color="#FF8960"/>
<stop offset="1" stop-color="#FF62A5"/>
</linearGradient>
<linearGradient id="paint3_linear_597_1332" x1="377.976" y1="445.627" x2="359.723" y2="453.985" gradientUnits="userSpaceOnUse">
<stop stop-color="#FF8960"/>
<stop offset="1" stop-color="#FF62A5"/>
</linearGradient>
<linearGradient id="paint4_linear_597_1332" x1="353.659" y1="307.568" x2="261.467" y2="427.324" gradientUnits="userSpaceOnUse">
<stop stop-color="#FF8960"/>
<stop offset="1" stop-color="#FF62A5"/>
</linearGradient>
</defs>
</svg>
